<svg xmlns="http://www.w3.org/2000/svg" fill="white" height="48" viewBox="0 96 960 960" width="48"><path d="M427.587 1023.11 373.478 969l75.087-74.848h-123.5q-12.549 41.36-46.744 66.876-34.194 25.516-78.335 25.516-54.467 0-92.498-38.032-38.032-38.031-38.032-92.498 0-44.141 25.516-78.335 25.516-34.195 66.876-46.744V419.826q-41.435-11.239-66.913-45.469-25.479-34.23-25.479-78.371 0-54.883 38.032-93.207 38.031-38.323 92.498-38.323 44.141 0 78.335 26.016 34.195 26.016 46.744 66.376h122.261L373.717 183l53.87-54.109L595.935 296 427.587 463.109 373.717 409l74.609-74.848H325.065q-9.478 31.957-32.217 54.696-22.739 22.739-53.696 30.978v311.042q30.669 9.815 53.429 32.568 22.759 22.753 32.484 53.412h122.261L373.478 743l54.109-54.109L595.935 856l-168.348 167.11Zm332.455-36.566q-54.455 0-92.52-38.036-38.066-38.035-38.066-92.508 0-44.25 25.516-78.268t66.876-46.797V419.826q-41.435-11.478-66.913-45.515-25.479-34.037-25.479-78.311 0-54.89 38.006-93.217t92.437-38.327q54.431 0 93.038 38.327T891.544 296q0 44.294-25.979 78.321-25.978 34.027-66.413 45.505v311.109q40.36 13.022 66.376 46.895 26.016 33.873 26.016 78.184 0 54.467-38.315 92.498-38.315 38.032-93.187 38.032ZM199.88 909q23.309 0 38.834-15.118 15.525-15.118 15.525-37.762 0-23.309-15.497-38.834-15.497-15.525-38.76-15.525-23.196 0-38.089 15.497Q147 832.755 147 856.018q0 23.196 15.118 38.089Q177.236 909 199.88 909Zm560 0q23.309 0 38.834-15.118 15.525-15.118 15.525-37.762 0-23.309-15.497-38.834-15.497-15.525-38.76-15.525-23.196 0-38.089 15.497Q707 832.755 707 856.018q0 23.196 15.118 38.089Q737.236 909 759.88 909Zm-560-560q23.309 0 38.834-15.118 15.525-15.118 15.525-37.762 0-23.309-15.497-38.834-15.497-15.525-38.76-15.525-23.196 0-38.089 15.497Q147 272.755 147 296.018q0 23.196 15.118 38.089Q177.236 349 199.88 349Zm560 0q23.309 0 38.834-15.118 15.525-15.118 15.525-37.762 0-23.309-15.497-38.834-15.497-15.525-38.76-15.525-23.196 0-38.089 15.497Q707 272.755 707 296.018q0 23.196 15.118 38.089Q737.236 349 759.88 349ZM200 856Zm560 0ZM200 296Zm560 0Z"/></svg>