<svg xmlns="http://www.w3.org/2000/svg" height="48" viewBox="0 96 960 960" width="48"><path d="M341.326 875.174Q223 831.935 149.196 728.63 75.391 625.326 75.391 495q0-28.283 4-55.446 4-27.163 13.522-54.445L36.391 417.87-2.76 351.283 185.826 243.13l108.152 186.587-66.587 39.153-51.369-87.979q-12.044 28.566-17.065 57.294-5.022 28.728-5.022 58.815 0 109.609 63.706 194.337 63.707 84.728 163.837 115.25l-40.152 68.587Zm288.609-508.391v-77.544h101.26q-45.565-57.13-111.554-88.717Q553.652 168.935 480 168.935q-63.609 0-119.196 22.924-55.586 22.924-98.152 63.489L222.5 186.283q52.565-44.326 117.75-69.609Q405.435 91.391 479 91.391q83.565 0 158.609 32.903 75.043 32.902 132.326 92.467v-67.522h77.543v217.544H629.935Zm-31.218 618.695L410.13 876.326l109.153-186.587 65.587 38.152-50.174 88.783q117.739-18.435 195.054-108.826Q807.065 617.456 807.065 497q0-17.804-2.5-35.109-2.5-17.304-6.022-35.108h78.066q3.761 17.804 5.88 35.108 2.12 17.305 2.12 34.109 0 139.565-85.446 247.75T580.391 886.652l56.718 32.239-38.392 66.587Z" fill="red"/></svg>